<svg width="50" height="51" viewBox="0 0 50 51" fill="none" xmlns="http://www.w3.org/2000/svg">
<g clip-path="url(#clip0_175_341)">
<path d="M25 50.7275C38.8071 50.7275 50 39.5347 50 25.7275C50 11.9204 38.8071 0.727539 25 0.727539C11.1929 0.727539 0 11.9204 0 25.7275C0 39.5347 11.1929 50.7275 25 50.7275Z" fill="#F0F0F0"/>
<path d="M24.9997 0.727539C14.2506 0.727539 5.08701 7.51191 1.55469 17.0319H48.4448C44.9124 7.51191 35.7488 0.727539 24.9997 0.727539V0.727539Z" fill="#A2001D"/>
<path d="M24.9997 50.7272C35.7488 50.7272 44.9124 43.9429 48.4447 34.4229H1.55469C5.08701 43.9429 14.2506 50.7272 24.9997 50.7272Z" fill="#0052B4"/>
</g>
<defs>
<clipPath id="clip0_175_341">
<rect width="50" height="50" fill="white" transform="translate(0 0.727539)"/>
</clipPath>
</defs>
</svg>
