<svg width="50" height="51" viewBox="0 0 50 51" fill="none" xmlns="http://www.w3.org/2000/svg">
<g clip-path="url(#clip0_175_341)">
<path d="M25 50.7275C38.8071 50.7275 50 39.5347 50 25.7275C50 11.9204 38.8071 0.727539 25 0.727539C11.1929 0.727539 0 11.9204 0 25.7275C0 39.5347 11.1929 50.7275 25 50.7275Z" fill="#F0F0F0"/>
<path d="M50 25.7275C50 39.5346 38.807 50.7275 25 50.7275C11.193 50.7275 0 39.5346 0 25.7275" fill="#496E2D"/>
<path d="M43.2628 18.1247C42.3688 15.5893 39.953 13.7715 37.1117 13.7715H31.5215C27.9196 13.7715 24.9997 16.6914 24.9997 20.2933C24.9997 21.47 25.313 22.601 25.8582 23.5541C23.7823 23.5371 21.8611 23.5685 20.6519 23.5541C20.6519 21.0389 20.6519 17.8348 20.6519 17.1644L20.9087 16.9075C22.0616 15.7546 21.6771 13.8331 21.6771 13.8331C21.6771 13.8331 19.7559 13.4488 18.6029 14.6018L17.2593 15.9454H15.7605C12.4588 15.9454 9.78232 18.622 9.78232 21.9236H14.1302V26.8149C14.1302 27.5304 14.2744 28.2119 14.5351 28.8326L13.0432 30.0758H10.8692V27.9019H8.69531V32.2497H18.4779V36.5976H16.304V38.7715H20.6519V34.4236L22.6445 32.0323H27.3548L29.3475 34.4236V36.5976H27.1735V38.7715H35.8691V26.8148C35.8691 25.014 37.3291 23.554 39.13 23.554C39.1763 23.554 39.2222 23.5557 39.2681 23.5575C39.178 23.2091 39.13 22.8437 39.13 22.4671C39.1302 20.1381 40.9615 18.2369 43.2628 18.1247V18.1247ZM31.5215 36.5975V32.0322H31.7026L33.6953 34.4235V36.5975H31.5215Z" fill="#D80027"/>
</g>
<defs>
<clipPath id="clip0_175_341">
<rect width="50" height="50" fill="white" transform="translate(0 0.727539)"/>
</clipPath>
</defs>
</svg>
