<svg width="50" height="51" viewBox="0 0 50 51" fill="none" xmlns="http://www.w3.org/2000/svg">
<g clip-path="url(#clip0_175_341)">
<path d="M25 50.7275C38.8071 50.7275 50 39.5347 50 25.7275C50 11.9204 38.8071 0.727539 25 0.727539C11.1929 0.727539 0 11.9204 0 25.7275C0 39.5347 11.1929 50.7275 25 50.7275Z" fill="#F0F0F0"/>
<path d="M23.9131 25.7278H50C50 23.4714 49.6992 21.2854 49.1388 19.2061H23.9131V25.7278Z" fill="#D80027"/>
<path d="M23.9131 12.6839H46.3307C44.8003 10.1866 42.8436 7.9793 40.5621 6.16211H23.9131V12.6839Z" fill="#D80027"/>
<path d="M24.9996 50.7277C30.8833 50.7277 36.2912 48.6941 40.5617 45.293H9.4375C13.708 48.6941 19.1159 50.7277 24.9996 50.7277Z" fill="#D80027"/>
<path d="M3.66943 38.7708H46.3308C47.5594 36.766 48.5122 34.5746 49.1389 32.249H0.861328C1.48799 34.5746 2.44082 36.766 3.66943 38.7708V38.7708Z" fill="#D80027"/>
<path d="M11.5805 4.63164H13.8587L11.7396 6.17119L12.549 8.6623L10.43 7.12275L8.31094 8.6623L9.01016 6.51025C7.14434 8.06445 5.50898 9.88535 4.16133 11.9143H4.89131L3.54238 12.8942C3.33223 13.2448 3.13066 13.601 2.9375 13.9624L3.58164 15.9449L2.37988 15.0718C2.08115 15.7047 1.80791 16.3519 1.5623 17.0125L2.27197 19.1969H4.89131L2.77217 20.7364L3.58164 23.2275L1.4626 21.688L0.193262 22.6103C0.0662109 23.6315 0 24.6718 0 25.7275H25C25 11.9205 25 10.2928 25 0.727539C20.0613 0.727539 15.4575 2.16016 11.5805 4.63164V4.63164ZM12.549 23.2275L10.43 21.688L8.31094 23.2275L9.12041 20.7364L7.00127 19.1969H9.62061L10.43 16.7058L11.2394 19.1969H13.8587L11.7396 20.7364L12.549 23.2275ZM11.7396 13.4538L12.549 15.9449L10.43 14.4054L8.31094 15.9449L9.12041 13.4538L7.00127 11.9143H9.62061L10.43 9.42314L11.2394 11.9143H13.8587L11.7396 13.4538ZM21.5164 23.2275L19.3974 21.688L17.2783 23.2275L18.0878 20.7364L15.9687 19.1969H18.588L19.3974 16.7058L20.2067 19.1969H22.8261L20.7069 20.7364L21.5164 23.2275ZM20.7069 13.4538L21.5164 15.9449L19.3974 14.4054L17.2783 15.9449L18.0878 13.4538L15.9687 11.9143H18.588L19.3974 9.42314L20.2067 11.9143H22.8261L20.7069 13.4538ZM20.7069 6.17119L21.5164 8.6623L19.3974 7.12275L17.2783 8.6623L18.0878 6.17119L15.9687 4.63164H18.588L19.3974 2.14053L20.2067 4.63164H22.8261L20.7069 6.17119Z" fill="#0052B4"/>
</g>
<defs>
<clipPath id="clip0_175_341">
<rect width="50" height="50" fill="white" transform="translate(0 0.727539)"/>
</clipPath>
</defs>
</svg>
