<svg width="50" height="51" viewBox="0 0 50 51" fill="none" xmlns="http://www.w3.org/2000/svg">
<g clip-path="url(#clip0_175_338)">
<path d="M25 50.8184C38.8071 50.8184 50 39.6255 50 25.8184C50 12.0112 38.8071 0.818359 25 0.818359C11.1929 0.818359 0 12.0112 0 25.8184C0 39.6255 11.1929 50.8184 25 50.8184Z" fill="#F0F0F0"/>
<path d="M25 0.818359C11.193 0.818359 0 12.0113 0 25.8184C0 28.8764 0.550098 31.8058 1.55498 34.514H48.4451C49.45 31.8058 50 28.8764 50 25.8184C50 12.0113 38.807 0.818359 25 0.818359Z" fill="#0052B4"/>
<path d="M24.9997 0.818359C14.2506 0.818359 5.08701 7.60273 1.55469 17.1228H48.4448C44.9124 7.60273 35.7488 0.818359 24.9997 0.818359V0.818359Z" fill="#D80027"/>
<path d="M6.46484 14.9492V27.4205C6.46484 34.5147 15.7325 36.6884 15.7325 36.6884C15.7325 36.6884 25.0001 34.5147 25.0001 27.4205V14.9492H6.46484Z" fill="#D80027"/>
<path d="M10.2969 17.1224H21.1665V12.7745L18.9926 13.8614L15.7317 10.6006L12.4708 13.8614L10.2969 12.7745V17.1224Z" fill="#FFDA44"/>
<path d="M22.8258 29.1561L15.7605 22.0908L8.69531 29.1561L11.0011 31.4618L15.7605 26.7023L20.52 31.4618L22.8258 29.1561Z" fill="#FFDA44"/>
<path d="M22.8258 22.5575H19.5293C19.7146 22.2376 19.8225 21.8671 19.8225 21.4708C19.8225 20.27 18.8491 19.2969 17.6485 19.2969C16.8189 19.2969 16.0985 19.7615 15.732 20.4446C15.3655 19.7616 14.6451 19.2969 13.8155 19.2969C12.6149 19.2969 11.6416 20.27 11.6416 21.4708C11.6416 21.8671 11.7494 22.2377 11.9348 22.5575H8.69531C8.69531 23.7582 9.74111 24.7314 10.9416 24.7314H10.8692C10.8692 25.9321 11.8425 26.9054 13.0432 26.9054C13.0432 27.9685 13.8066 28.8517 14.8149 29.0407L13.1021 32.9081C13.9229 33.2418 14.82 33.4271 15.7606 33.4271C16.7013 33.4271 17.5983 33.2418 18.4192 32.9081L16.7063 29.0407C17.7146 28.8519 18.4781 27.9686 18.4781 26.9054C19.6788 26.9054 20.6521 25.9321 20.6521 24.7314H20.5797C21.7801 24.7314 22.8258 23.7581 22.8258 22.5575V22.5575Z" fill="#F0F0F0"/>
</g>
<defs>
<clipPath id="clip0_175_338">
<rect width="50" height="50" fill="white" transform="translate(0 0.818359)"/>
</clipPath>
</defs>
</svg>
