<svg width="50" height="51" viewBox="0 0 50 51" fill="none" xmlns="http://www.w3.org/2000/svg">
<g clip-path="url(#clip0_175_341)">
<path d="M1.55469 34.4229C5.08701 43.9428 14.2506 50.7272 24.9997 50.7272C35.7488 50.7272 44.9124 43.9428 48.4447 34.4229L24.9997 32.249L1.55469 34.4229Z" fill="#FFDA44"/>
<path d="M24.9997 0.727539C14.2506 0.727539 5.08701 7.51191 1.55469 17.0319L24.9997 19.2058L48.4447 17.0318C44.9124 7.51191 35.7488 0.727539 24.9997 0.727539Z" fill="black"/>
<path d="M1.55498 17.0322C0.550098 19.7405 0 22.6698 0 25.7278C0 28.7858 0.550098 31.7151 1.55498 34.4234H48.4451C49.45 31.7151 50 28.7858 50 25.7278C50 22.6698 49.45 19.7405 48.445 17.0322H1.55498Z" fill="#D80027"/>
</g>
<defs>
<clipPath id="clip0_175_341">
<rect width="50" height="50" fill="white" transform="translate(0 0.727539)"/>
</clipPath>
</defs>
</svg>
