<svg width="50" height="51" viewBox="0 0 50 51" fill="none" xmlns="http://www.w3.org/2000/svg">
<g clip-path="url(#clip0_175_338)">
<path d="M50 25.8187C50 22.7607 49.4499 19.8313 48.445 17.1231L25 16.0361L1.55498 17.123C0.550098 19.8313 0 22.7607 0 25.8187C0 28.8768 0.550098 31.8062 1.55498 34.5144L25 35.6014L48.445 34.5145C49.4499 31.8062 50 28.8768 50 25.8187Z" fill="#F0F0F0"/>
<path d="M24.9997 50.8181C35.7488 50.8181 44.9124 44.0337 48.4447 34.5137H1.55469C5.08701 44.0337 14.2506 50.8181 24.9997 50.8181Z" fill="#0052B4"/>
<path d="M1.55469 17.1228H48.4448C44.9124 7.60273 35.7488 0.818359 24.9997 0.818359C14.2506 0.818359 5.08701 7.60273 1.55469 17.1228V17.1228Z" fill="#D80027"/>
<path d="M31.5217 18.2094H27.1738L27.8985 12.7745L30.797 10.6006L33.6955 12.7745V17.1224L31.5217 18.2094Z" fill="#338AF3"/>
<path d="M18.4785 18.2094H22.8264L22.1017 12.7745L19.2031 10.6006L16.3047 12.7745V17.1224L18.4785 18.2094Z" fill="#338AF3"/>
<path d="M27.8988 18.2094H22.1016V12.7745L25.0002 10.6006L27.8988 12.7745V18.2094Z" fill="#0052B4"/>
<path d="M16.3047 17.123V29.0795C16.3047 31.9265 17.6799 34.4583 19.801 36.0455L21.3228 35.6647L23.2431 37.5966C23.8109 37.7136 24.3985 37.7752 25.0004 37.7752C25.599 37.7752 26.1837 37.7144 26.7485 37.5985L28.9406 35.7733L30.1996 36.042C32.3198 34.4549 33.696 31.9257 33.696 29.0795V17.123H16.3047Z" fill="#F0F0F0"/>
<path d="M16.3047 17.123H19.7829V20.6013H16.3047V17.123Z" fill="#D80027"/>
<path d="M23.2607 17.123H26.739V20.6013H23.2607V17.123Z" fill="#D80027"/>
<path d="M30.2178 17.123H33.696V20.6013H30.2178V17.123Z" fill="#D80027"/>
<path d="M19.7832 20.6016H23.2614V24.0798H19.7832V20.6016Z" fill="#D80027"/>
<path d="M26.7393 20.6016H30.2175V24.0798H26.7393V20.6016Z" fill="#D80027"/>
<path d="M16.3047 24.0781H19.7829V27.5563H16.3047V24.0781Z" fill="#D80027"/>
<path d="M19.7832 27.5566H23.2614V31.0349H19.7832V27.5566Z" fill="#D80027"/>
<path d="M23.2607 24.0781H26.739V27.5563H23.2607V24.0781Z" fill="#D80027"/>
<path d="M30.2178 24.0781H33.696V27.5563H30.2178V24.0781Z" fill="#D80027"/>
<path d="M26.7393 27.5566H30.2175V31.0349H26.7393V27.5566Z" fill="#D80027"/>
<path d="M23.2607 31.0352H26.739V34.5134H23.2607V31.0352Z" fill="#D80027"/>
<path d="M19.7831 31.0352H16.5293C16.8277 32.3281 17.4145 33.5112 18.2189 34.5134H19.7831V31.0352Z" fill="#D80027"/>
<path d="M30.2178 34.5134H31.7818C32.5865 33.5112 33.173 32.328 33.4715 31.0352H30.2178V34.5134Z" fill="#D80027"/>
<path d="M19.7832 34.5137V36.0313C20.7948 36.7926 21.977 37.3384 23.2614 37.6003V34.5137H19.7832Z" fill="#D80027"/>
<path d="M26.7393 34.5137V37.6003C28.0237 37.3386 29.2059 36.7926 30.2175 36.0313V34.5137H26.7393Z" fill="#D80027"/>
</g>
<defs>
<clipPath id="clip0_175_338">
<rect width="50" height="50" fill="white" transform="translate(0 0.818359)"/>
</clipPath>
</defs>
</svg>
