<svg width="50" height="51" viewBox="0 0 50 51" fill="none" xmlns="http://www.w3.org/2000/svg">
<g clip-path="url(#clip0_175_336)">
<path d="M25 50.8184C38.8071 50.8184 50 39.6255 50 25.8184C50 12.0112 38.8071 0.818359 25 0.818359C11.1929 0.818359 0 12.0112 0 25.8184C0 39.6255 11.1929 50.8184 25 50.8184Z" fill="#D80027"/>
<path d="M39.774 21.3346H28.4875L24.9998 10.6006L21.5121 21.3346H10.2256L19.3565 27.9686L15.8687 38.7028L24.9998 32.0688L34.1309 38.7029L30.6431 27.9687L39.774 21.3346ZM21.9121 27.1382L23.0915 23.5084H26.908L28.0875 27.1382V27.1383L24.9998 29.3815L21.9122 27.1383L21.9121 27.1382ZM26.2018 21.3346H23.7979L24.9998 17.6354L26.2018 21.3346ZM29.9366 25.7947L29.1937 23.5085H33.0833L29.9366 25.7947ZM20.8058 23.5085L20.0629 25.7947L16.9161 23.5085H20.8058ZM20.0038 33.0114L21.2058 29.3123L23.1506 30.7252L20.0038 33.0114ZM26.849 30.7253L28.7938 29.3124L29.9958 33.0115L26.849 30.7253Z" fill="#496E2D"/>
</g>
<defs>
<clipPath id="clip0_175_336">
<rect width="50" height="50" fill="white" transform="translate(0 0.818359)"/>
</clipPath>
</defs>
</svg>
